<?xml version="1.0" encoding="UTF-8" standalone="no"?>
<svg
   xmlns:dc="http://purl.org/dc/elements/1.1/"
   xmlns:cc="http://creativecommons.org/ns#"
   xmlns:rdf="http://www.w3.org/1999/02/22-rdf-syntax-ns#"
   xmlns:svg="http://www.w3.org/2000/svg"
   xmlns="http://www.w3.org/2000/svg"
   xmlns:sodipodi="http://sodipodi.sourceforge.net/DTD/sodipodi-0.dtd"
   xmlns:inkscape="http://www.inkscape.org/namespaces/inkscape"
   width="32"
   height="32"
   viewBox="0 0 32 32"
   version="1.1"
   id="svg7"
   sodipodi:docname="edit-clear-32.svg"
   inkscape:version="0.92.1 r15371">
  <metadata
     id="metadata11">
    <rdf:RDF>
      <cc:Work
         rdf:about="">
        <dc:format>image/svg+xml</dc:format>
        <dc:type
           rdf:resource="http://purl.org/dc/dcmitype/StillImage" />
        <dc:title></dc:title>
      </cc:Work>
    </rdf:RDF>
  </metadata>
  <sodipodi:namedview
     pagecolor="#ffffff"
     bordercolor="#666666"
     borderopacity="1"
     objecttolerance="10"
     gridtolerance="10"
     guidetolerance="10"
     inkscape:pageopacity="0"
     inkscape:pageshadow="2"
     inkscape:window-width="1920"
     inkscape:window-height="1007"
     id="namedview9"
     showgrid="false"
     inkscape:zoom="10.727273"
     inkscape:cx="12.584746"
     inkscape:cy="11"
     inkscape:window-x="0"
     inkscape:window-y="24"
     inkscape:window-maximized="1"
     inkscape:current-layer="svg7" />
  <defs
     id="defs3">
    <style
       id="current-color-scheme"
       type="text/css">
   .ColorScheme-Text { color:#DADADA; } .ColorScheme-Highlight { color:#5294e2; }
  </style>
  </defs>
  <path
     style="color:#dadada;fill:currentColor;stroke-width:1.56124938"
     class="ColorScheme-Text"
     d="M 11.125,7 3,16 11.125,25 H 29 V 7 Z m 3.25,4.5 H 16 c 0.450125,0 0.855206,0.168321 1.148926,0.439447 L 19.25,13.8789 21.351074,11.939447 C 21.627324,11.667949 22.032305,11.5 22.487305,11.5 h 1.625 v 1.499996 c 0,0.415507 -0.182356,0.789426 -0.476075,1.060546 L 21.525636,16 l 2.101073,1.939459 c 0.293719,0.27112 0.476074,0.645038 0.476074,1.060544 V 20.5 h -1.625 c -0.450125,0 -0.855206,-0.168321 -1.148926,-0.439446 l -2.101074,-1.939453 -2.101074,1.939453 C 16.866709,20.33205 16.461347,20.5 16.006347,20.5 h -1.625 v -1.499997 c 0,-0.415506 0.182357,-0.789424 0.476074,-1.060544 L 16.968018,16 14.857421,14.060542 c -0.2925,-0.271491 -0.472901,-0.645039 -0.472901,-1.060546 z"
     id="path5"
     inkscape:connector-curvature="0" />
</svg>
