<?xml version="1.0" encoding="UTF-8" standalone="no"?>
<svg
   xmlns:dc="http://purl.org/dc/elements/1.1/"
   xmlns:cc="http://creativecommons.org/ns#"
   xmlns:rdf="http://www.w3.org/1999/02/22-rdf-syntax-ns#"
   xmlns:svg="http://www.w3.org/2000/svg"
   xmlns="http://www.w3.org/2000/svg"
   xmlns:sodipodi="http://sodipodi.sourceforge.net/DTD/sodipodi-0.dtd"
   xmlns:inkscape="http://www.inkscape.org/namespaces/inkscape"
   width="24"
   height="24"
   viewBox="0 0 24 24"
   version="1.1"
   id="svg7"
   sodipodi:docname="edit-clear-24.svg"
   inkscape:version="0.92.1 r15371">
  <metadata
     id="metadata11">
    <rdf:RDF>
      <cc:Work
         rdf:about="">
        <dc:format>image/svg+xml</dc:format>
        <dc:type
           rdf:resource="http://purl.org/dc/dcmitype/StillImage" />
        <dc:title></dc:title>
      </cc:Work>
    </rdf:RDF>
  </metadata>
  <sodipodi:namedview
     pagecolor="#ffffff"
     bordercolor="#666666"
     borderopacity="1"
     objecttolerance="10"
     gridtolerance="10"
     guidetolerance="10"
     inkscape:pageopacity="0"
     inkscape:pageshadow="2"
     inkscape:window-width="1920"
     inkscape:window-height="1007"
     id="namedview9"
     showgrid="false"
     inkscape:zoom="10.727273"
     inkscape:cx="11.186441"
     inkscape:cy="11"
     inkscape:window-x="0"
     inkscape:window-y="24"
     inkscape:window-maximized="1"
     inkscape:current-layer="svg7" />
  <defs
     id="defs3">
    <style
       id="current-color-scheme"
       type="text/css">
   .ColorScheme-Text { color:#DADADA; } .ColorScheme-Highlight { color:#5294e2; }
  </style>
  </defs>
  <path
     style="color:#dadada;fill:currentColor;stroke-width:1.14564383"
     class="ColorScheme-Text"
     d="M 8.625,5 3,12 8.625,19 H 21 V 5 Z m 2.25,3.4999998 H 12 c 0.311625,0 0.592066,0.1309222 0.79541,0.3417972 L 14.25,10.350261 15.70459,8.841797 c 0.19125,-0.2111667 0.471621,-0.3417972 0.786621,-0.3417972 h 1.125 v 1.1666667 c 0,0.3231667 -0.126246,0.6139955 -0.32959,0.8248705 L 15.82544,12 l 1.454589,1.508464 c 0.203344,0.210875 0.32959,0.501703 0.32959,0.824869 V 15.5 h -1.125 c -0.311625,0 -0.592066,-0.130922 -0.79541,-0.341796 l -1.45459,-1.508464 -1.45459,1.508464 C 12.600029,15.369369 12.319394,15.5 12.004394,15.5 h -1.125 v -1.166667 c 0,-0.323166 0.126247,-0.613994 0.32959,-0.824869 L 12.670166,12 11.208984,10.491537 c -0.2025,-0.211166 -0.327393,-0.5017038 -0.327393,-0.8248705 z"
     id="path5"
     inkscape:connector-curvature="0" />
</svg>
